<svg width="54" height="54" viewBox="0 0 54 54" fill="none" xmlns="http://www.w3.org/2000/svg">
<g filter="url(#filter0_d_141_511)">
<g clip-path="url(#clip0_141_511)">
<rect x="7" y="7" width="40" height="40" rx="20" fill="#B600CF"/>
<g clip-path="url(#clip1_141_511)">
<mask id="mask0_141_511" style="mask-type:alpha" maskUnits="userSpaceOnUse" x="9" y="9" width="36" height="36">
<rect x="9" y="9" width="36" height="36" fill="#D9D9D9"/>
</mask>
<g mask="url(#mask0_141_511)">
<path d="M27.0071 17.5125C26.7776 17.5125 26.5754 17.4269 26.4004 17.2557C26.2254 17.0844 26.1379 16.8837 26.1379 16.6534V13.2098C26.1379 12.9795 26.2231 12.7767 26.3936 12.6012C26.5644 12.4254 26.7644 12.3375 26.9936 12.3375C27.2231 12.3375 27.4254 12.4231 27.6004 12.5944C27.7754 12.7656 27.8629 12.9664 27.8629 13.1966V16.6403C27.8629 16.8705 27.7776 17.0734 27.6071 17.2489C27.4364 17.4246 27.2364 17.5125 27.0071 17.5125ZM33.7129 20.2875C33.5129 20.116 33.4191 19.9205 33.4316 19.701C33.4441 19.4815 33.5504 19.2748 33.7504 19.0808L36.1091 16.6406C36.2831 16.4469 36.4835 16.35 36.7103 16.35C36.937 16.35 37.1531 16.4528 37.3586 16.6583C37.5781 16.8778 37.6879 17.0813 37.6879 17.2688C37.6879 17.4563 37.5754 17.6625 37.3504 17.8875L34.9129 20.2875C34.6879 20.5125 34.4879 20.625 34.3129 20.625C34.1379 20.625 33.9379 20.5125 33.7129 20.2875ZM37.3601 27.8625C37.1299 27.8625 36.927 27.7773 36.7515 27.6068C36.5758 27.436 36.4879 27.236 36.4879 27.0068C36.4879 26.7773 36.5735 26.575 36.7448 26.4C36.916 26.225 37.1168 26.1375 37.347 26.1375H40.7906C41.0209 26.1375 41.2238 26.2228 41.3993 26.3933C41.575 26.564 41.6629 26.764 41.6629 26.9933C41.6629 27.2228 41.5773 27.425 41.406 27.6C41.2348 27.775 41.034 27.8625 40.8038 27.8625H37.3601ZM27.0071 41.6625C26.7776 41.6625 26.5754 41.5769 26.4004 41.4057C26.2254 41.2344 26.1379 41.0337 26.1379 40.8034V37.3973C26.1379 37.167 26.2231 36.964 26.3936 36.7883C26.5644 36.6128 26.7644 36.525 26.9936 36.525C27.2231 36.525 27.4254 36.6107 27.6004 36.7819C27.7754 36.9532 27.8629 37.1539 27.8629 37.3842V40.7903C27.8629 41.0205 27.7776 41.2234 27.6071 41.3989C27.4364 41.5747 27.2364 41.6625 27.0071 41.6625ZM19.1186 20.2875L16.641 17.8785C16.4473 17.7303 16.3504 17.5446 16.3504 17.3216C16.3504 17.0989 16.4504 16.875 16.6504 16.65C16.9004 16.475 17.1213 16.3813 17.313 16.3688C17.5045 16.3563 17.6961 16.45 17.8879 16.65L20.3254 19.125C20.5254 19.3168 20.6254 19.5084 20.6254 19.6999C20.6254 19.8917 20.5279 20.0875 20.3329 20.2875C20.1604 20.4875 19.9634 20.5875 19.7419 20.5875C19.5204 20.5875 19.3126 20.4875 19.1186 20.2875ZM36.1504 37.35L33.7504 34.9125C33.5504 34.7125 33.4441 34.5125 33.4316 34.3125C33.4191 34.1125 33.5104 33.9125 33.7054 33.7125C33.9004 33.5125 34.1004 33.4125 34.3054 33.4125C34.5104 33.4125 34.7129 33.525 34.9129 33.75L37.3586 36.1557C37.5281 36.3519 37.6191 36.55 37.6316 36.75C37.6441 36.95 37.5525 37.15 37.3568 37.35C37.1525 37.55 36.9545 37.65 36.7628 37.65C36.5713 37.65 36.3671 37.55 36.1504 37.35ZM13.2101 27.8625C12.9799 27.8625 12.777 27.7773 12.6015 27.6068C12.4258 27.436 12.3379 27.236 12.3379 27.0068C12.3379 26.7773 12.4235 26.575 12.5948 26.4C12.766 26.225 12.9668 26.1375 13.197 26.1375H16.6406C16.8709 26.1375 17.0739 26.2228 17.2496 26.3933C17.4251 26.564 17.5129 26.764 17.5129 26.9933C17.5129 27.2228 17.4273 27.425 17.256 27.6C17.0848 27.775 16.884 27.8625 16.6538 27.8625H13.2101ZM16.6879 37.332C16.4879 37.094 16.3816 36.8813 16.3691 36.6938C16.3566 36.5063 16.4504 36.3125 16.6504 36.1125L19.0504 33.75C19.2754 33.55 19.4839 33.45 19.6759 33.45C19.8681 33.45 20.0556 33.5479 20.2384 33.7437C20.4214 33.9479 20.5129 34.15 20.5129 34.35C20.5129 34.55 20.4254 34.75 20.2504 34.95L17.8789 37.3523C17.6849 37.5508 17.4858 37.65 17.2815 37.65C17.0775 37.65 16.8796 37.544 16.6879 37.332ZM27.0094 34.05C25.0534 34.05 23.3879 33.3655 22.0129 31.9965C20.6379 30.6273 19.9504 28.9648 19.9504 27.009C19.9504 25.053 20.6349 23.3875 22.0039 22.0125C23.3731 20.6375 25.0356 19.95 26.9914 19.95C28.9474 19.95 30.6129 20.6345 31.9879 22.0035C33.3629 23.3728 34.0504 25.0353 34.0504 26.991C34.0504 28.947 33.3659 30.6125 31.9969 31.9875C30.6276 33.3625 28.9651 34.05 27.0094 34.05ZM27.0004 32.325C28.5004 32.325 29.7629 31.8125 30.7879 30.7875C31.8129 29.7625 32.3254 28.5 32.3254 27C32.3254 25.5 31.8129 24.2375 30.7879 23.2125C29.7629 22.1875 28.5004 21.675 27.0004 21.675C25.5004 21.675 24.2379 22.1875 23.2129 23.2125C22.1879 24.2375 21.6754 25.5 21.6754 27C21.6754 28.5 22.1879 29.7625 23.2129 30.7875C24.2379 31.8125 25.5004 32.325 27.0004 32.325Z" fill="#EFEFEF"/>
</g>
</g>
</g>
</g>
<defs>
<filter id="filter0_d_141_511" x="0.2" y="0.2" width="53.6" height="53.6" filterUnits="userSpaceOnUse" color-interpolation-filters="sRGB">
<feFlood flood-opacity="0" result="BackgroundImageFix"/>
<feColorMatrix in="SourceAlpha" type="matrix" values="0 0 0 0 0 0 0 0 0 0 0 0 0 0 0 0 0 0 127 0" result="hardAlpha"/>
<feOffset/>
<feGaussianBlur stdDeviation="3.4"/>
<feComposite in2="hardAlpha" operator="out"/>
<feColorMatrix type="matrix" values="0 0 0 0 0 0 0 0 0 0 0 0 0 0 0 0 0 0 0.25 0"/>
<feBlend mode="normal" in2="BackgroundImageFix" result="effect1_dropShadow_141_511"/>
<feBlend mode="normal" in="SourceGraphic" in2="effect1_dropShadow_141_511" result="shape"/>
</filter>
<clipPath id="clip0_141_511">
<rect x="7" y="7" width="40" height="40" rx="20" fill="white"/>
</clipPath>
<clipPath id="clip1_141_511">
<rect width="36" height="36" fill="white" transform="translate(9 9)"/>
</clipPath>
</defs>
</svg>
