<svg width="78" height="78" viewBox="0 0 78 78" fill="none" xmlns="http://www.w3.org/2000/svg">
<g filter="url(#filter0_d_141_456)">
<g clip-path="url(#clip0_141_456)">
<rect x="7" y="7" width="64" height="64" rx="32" fill="#B600CF"/>
<g clip-path="url(#clip1_141_456)">
<mask id="mask0_141_456" style="mask-type:alpha" maskUnits="userSpaceOnUse" x="9" y="9" width="60" height="60">
<rect x="9" y="9" width="60" height="60" fill="#D9D9D9"/>
</mask>
<g mask="url(#mask0_141_456)">
<path d="M37.624 40.5001V48.9376C37.624 49.323 37.7661 49.6588 38.0503 49.9451C38.3349 50.2317 38.6682 50.3751 39.0503 50.3751C39.4328 50.3751 39.7699 50.2317 40.0615 49.9451C40.3532 49.6588 40.499 49.323 40.499 48.9376V40.5001H48.9365C49.3219 40.5001 49.658 40.358 49.9446 40.0738C50.2309 39.7892 50.374 39.4559 50.374 39.0738C50.374 38.6913 50.2309 38.3542 49.9446 38.0626C49.658 37.7709 49.3219 37.6251 48.9365 37.6251H40.499V29.0626C40.499 28.6771 40.3569 28.3411 40.0728 28.0544C39.7882 27.7682 39.4549 27.6251 39.0728 27.6251C38.6903 27.6251 38.3532 27.7682 38.0615 28.0544C37.7699 28.3411 37.624 28.6771 37.624 29.0626V37.6251H29.0615C28.6761 37.6251 28.3403 37.7671 28.054 38.0513C27.7674 38.3359 27.624 38.6692 27.624 39.0513C27.624 39.4338 27.7674 39.7709 28.054 40.0626C28.3403 40.3542 28.6761 40.5001 29.0615 40.5001H37.624ZM39.0271 61.7501C35.8984 61.7501 32.9507 61.1582 30.184 59.9744C27.4174 58.7907 24.9959 57.1617 22.9196 55.0876C20.843 53.0134 19.2121 50.5957 18.0271 47.8344C16.8417 45.0728 16.249 42.1221 16.249 38.9826C16.249 35.8317 16.8421 32.8788 18.0284 30.1238C19.2146 27.3688 20.8469 24.9494 22.9253 22.8657C25.0036 20.7824 27.4213 19.159 30.1784 17.9957C32.9355 16.8319 35.8815 16.2501 39.0165 16.2501C42.1669 16.2501 45.1194 16.8311 47.874 17.9932C50.629 19.1553 53.0484 20.7771 55.1321 22.8588C57.2163 24.9405 58.8401 27.3621 60.0034 30.1238C61.1671 32.8859 61.749 35.8369 61.749 38.9769C61.749 42.1174 61.168 45.0638 60.0059 47.8163C58.8438 50.5688 57.2221 52.9853 55.1409 55.0657C53.0601 57.1465 50.639 58.7809 47.8778 59.9688C45.1169 61.1563 42.1667 61.7501 39.0271 61.7501Z" fill="#EFEFEF"/>
</g>
</g>
</g>
</g>
<defs>
<filter id="filter0_d_141_456" x="0.2" y="0.2" width="77.6" height="77.6" filterUnits="userSpaceOnUse" color-interpolation-filters="sRGB">
<feFlood flood-opacity="0" result="BackgroundImageFix"/>
<feColorMatrix in="SourceAlpha" type="matrix" values="0 0 0 0 0 0 0 0 0 0 0 0 0 0 0 0 0 0 127 0" result="hardAlpha"/>
<feOffset/>
<feGaussianBlur stdDeviation="3.4"/>
<feComposite in2="hardAlpha" operator="out"/>
<feColorMatrix type="matrix" values="0 0 0 0 0 0 0 0 0 0 0 0 0 0 0 0 0 0 0.25 0"/>
<feBlend mode="normal" in2="BackgroundImageFix" result="effect1_dropShadow_141_456"/>
<feBlend mode="normal" in="SourceGraphic" in2="effect1_dropShadow_141_456" result="shape"/>
</filter>
<clipPath id="clip0_141_456">
<rect x="7" y="7" width="64" height="64" rx="32" fill="white"/>
</clipPath>
<clipPath id="clip1_141_456">
<rect width="60" height="60" fill="white" transform="translate(9 9)"/>
</clipPath>
</defs>
</svg>
