<svg width="512" height="512" viewBox="0 0 512 512" fill="none" xmlns="http://www.w3.org/2000/svg">
<rect width="512" height="512" fill="url(#paint0_linear_167_557)"/>
<path d="M402.504 293.903L421.731 344.088C421.797 344.261 422.041 344.259 422.105 344.086L440.572 293.903L471.345 214.703C471.375 214.626 471.449 214.575 471.531 214.575H501.919C502.061 214.575 502.158 214.719 502.104 214.851L428.773 393.942C420.655 413.69 410.618 428.075 398.694 437.071C387.062 446.252 370.771 450.862 349.817 450.892C349.707 450.892 349.616 450.802 349.616 450.692V424.43C349.616 424.322 349.703 424.233 349.812 424.23C358.351 424 365.64 423.003 371.681 421.262C378.021 419.507 383.609 415.896 388.428 410.414C393.502 405.148 398.332 397.242 402.898 386.71L406.671 378.554C406.694 378.503 406.696 378.445 406.674 378.393L374.906 301.543V224.597L402.504 293.903Z" fill="white"/>
<path d="M368.328 336.691C368.329 342.608 369.344 347.1 371.37 350.17C373.654 353.022 378.106 354.449 384.702 354.449H390.588C390.698 354.449 390.788 354.538 390.788 354.649V378.937C390.788 379.048 390.698 379.137 390.588 379.137H382.031C365.287 379.137 353.601 375.306 347.005 367.627C340.409 359.947 337.134 350.065 337.134 337.997V134.141C337.134 134.031 337.223 133.941 337.334 133.941H368.128C368.238 133.941 368.328 134.031 368.328 134.141V336.691Z" fill="white"/>
<path d="M59.8789 281.519L77.5514 347.969C77.5823 348.086 77.7459 348.089 77.7819 347.975L119.845 214.132C119.871 214.049 119.948 213.992 120.035 213.992H154.071C154.158 213.992 154.236 214.049 154.262 214.132L196.323 348.625C196.359 348.74 196.524 348.736 196.554 348.619L213.818 281.838L221.128 256.201V354.944L215.041 375.301C215.016 375.386 214.938 375.444 214.85 375.444H177.661C177.573 375.444 177.496 375.387 177.47 375.303L136.576 243.382C136.541 243.27 136.383 243.269 136.347 243.381L94.2766 375.305C94.2501 375.388 94.1731 375.444 94.086 375.444H56.8707C56.783 375.444 56.7054 375.387 56.6796 375.303L7.07972 214.251C7.04011 214.122 7.13628 213.992 7.27086 213.992H39.9988C40.0876 213.992 40.1658 214.051 40.1908 214.136L59.8789 281.519Z" fill="#E737FE"/>
<path d="M261.33 296.26C261.33 296.361 261.446 296.416 261.525 296.353C278.549 282.709 293.634 269.393 306.74 256.396C311.468 251.8 325.775 238.34 330.152 233.543V259.693V273.34L318.279 283.389C318.227 283.433 318.222 283.512 318.268 283.562L330.083 296.353V346.103L294.629 300.911C294.56 300.823 294.431 300.809 294.344 300.881C289.392 304.971 284.166 309.168 278.699 313.471C273.199 317.8 267.434 322.142 261.413 326.471C261.361 326.508 261.33 326.569 261.33 326.633V375.244C261.33 375.354 261.24 375.444 261.13 375.444H229.176C229.065 375.444 228.976 375.354 228.976 375.244V134.283C228.976 134.172 229.065 134.083 229.176 134.083H261.13C261.24 134.083 261.33 134.172 261.33 134.283V296.26Z" fill="#E737FE"/>
<defs>
<linearGradient id="paint0_linear_167_557" x1="256" y1="0" x2="256" y2="512" gradientUnits="userSpaceOnUse">
<stop offset="0.0036042" stop-color="#570082"/>
<stop offset="1" stop-color="#240029"/>
</linearGradient>
</defs>
</svg>
