<svg width="192" height="192" viewBox="0 0 192 192" fill="none" xmlns="http://www.w3.org/2000/svg">
<rect width="192" height="192" fill="url(#paint0_linear_172_693)"/>
<mask id="path-1-inside-1_172_693" fill="white">
<path d="M160.927 84.7764L163.191 91.5107L165.367 84.7764L168.965 74.2383H172.562L163.991 98.0703C163.044 100.694 161.874 102.604 160.482 103.799C159.121 105.023 157.211 105.636 154.754 105.636V102.094C155.76 102.065 156.619 101.933 157.329 101.7C158.069 101.467 158.721 100.985 159.283 100.257C159.875 99.5572 160.438 98.5075 160.971 97.1084L161.415 96.0146L153.511 74.2383H157.24L160.927 84.7764ZM154.069 67.0381C154.141 66.8479 154.355 66.7515 154.545 66.8223C154.736 66.8941 154.833 67.1071 154.762 67.2979L141.169 103.388C141.097 103.578 140.884 103.672 140.693 103.601C140.503 103.529 140.406 103.316 140.478 103.125L154.069 67.0381ZM134.469 73.8008C137.459 73.8008 139.754 74.7043 141.353 76.5117C142.981 78.29 143.795 80.6957 143.795 83.7275V86.3506C143.795 89.4406 142.981 91.875 141.353 93.6533C139.754 95.4316 137.459 96.3213 134.469 96.3213C131.508 96.3213 129.213 95.4316 127.585 93.6533C125.957 91.875 125.143 89.4406 125.143 86.3506V83.7275C125.143 80.6957 125.942 78.29 127.541 76.5117C129.169 74.7044 131.479 73.8008 134.469 73.8008ZM117.115 73.8008C119.069 73.8009 120.564 74.443 121.601 75.7256C122.637 76.9791 123.154 78.7717 123.154 81.1035V95.8838H119.513V81.6289C119.513 78.6554 118.417 77.168 116.227 77.168C115.398 77.168 114.45 77.387 113.385 77.8242C112.349 78.2324 111.046 79.049 109.477 80.2734C109.506 80.3899 109.521 80.5214 109.521 80.667V95.8838H105.879V81.6289C105.879 78.6555 104.769 77.1681 102.549 77.168C101.72 77.168 100.787 77.387 99.751 77.8242C98.7148 78.2324 97.4119 79.049 95.8428 80.2734V95.8838H92.2012V74.2383H95.665V77.2559C97.2342 75.9732 98.626 75.0835 99.8398 74.5879C101.053 74.0633 102.252 73.8008 103.437 73.8008C104.828 73.8008 105.983 74.1215 106.9 74.7627C107.818 75.3749 108.499 76.2646 108.943 77.4307C110.572 76.0605 112.023 75.1126 113.296 74.5879C114.598 74.0633 115.872 73.8008 117.115 73.8008ZM187.203 77.3867C185.871 77.3867 184.568 77.6196 183.295 78.0859C182.052 78.5524 180.719 79.4421 179.298 80.7539V95.8838H175.656V74.2383H179.12V77.7363C180.63 76.2789 182.007 75.2589 183.25 74.6758C184.523 74.0928 185.841 73.8008 187.203 73.8008V77.3867ZM134.469 77.0801C132.692 77.0801 131.316 77.6779 130.339 78.873C129.391 80.0391 128.918 81.6577 128.918 83.7275V86.3506C128.918 88.5079 129.391 90.1698 130.339 91.3359C131.316 92.502 132.692 93.085 134.469 93.085C136.275 93.085 137.651 92.5019 138.599 91.3359C139.546 90.1698 140.02 88.5079 140.02 86.3506V83.7275C140.02 81.6577 139.546 80.0391 138.599 78.873C137.651 77.678 136.275 77.0801 134.469 77.0801Z"/>
</mask>
<path d="M160.927 84.7764L163.191 91.5107L165.367 84.7764L168.965 74.2383H172.562L163.991 98.0703C163.044 100.694 161.874 102.604 160.482 103.799C159.121 105.023 157.211 105.636 154.754 105.636V102.094C155.76 102.065 156.619 101.933 157.329 101.7C158.069 101.467 158.721 100.985 159.283 100.257C159.875 99.5572 160.438 98.5075 160.971 97.1084L161.415 96.0146L153.511 74.2383H157.24L160.927 84.7764ZM154.069 67.0381C154.141 66.8479 154.355 66.7515 154.545 66.8223C154.736 66.8941 154.833 67.1071 154.762 67.2979L141.169 103.388C141.097 103.578 140.884 103.672 140.693 103.601C140.503 103.529 140.406 103.316 140.478 103.125L154.069 67.0381ZM134.469 73.8008C137.459 73.8008 139.754 74.7043 141.353 76.5117C142.981 78.29 143.795 80.6957 143.795 83.7275V86.3506C143.795 89.4406 142.981 91.875 141.353 93.6533C139.754 95.4316 137.459 96.3213 134.469 96.3213C131.508 96.3213 129.213 95.4316 127.585 93.6533C125.957 91.875 125.143 89.4406 125.143 86.3506V83.7275C125.143 80.6957 125.942 78.29 127.541 76.5117C129.169 74.7044 131.479 73.8008 134.469 73.8008ZM117.115 73.8008C119.069 73.8009 120.564 74.443 121.601 75.7256C122.637 76.9791 123.154 78.7717 123.154 81.1035V95.8838H119.513V81.6289C119.513 78.6554 118.417 77.168 116.227 77.168C115.398 77.168 114.45 77.387 113.385 77.8242C112.349 78.2324 111.046 79.049 109.477 80.2734C109.506 80.3899 109.521 80.5214 109.521 80.667V95.8838H105.879V81.6289C105.879 78.6555 104.769 77.1681 102.549 77.168C101.72 77.168 100.787 77.387 99.751 77.8242C98.7148 78.2324 97.4119 79.049 95.8428 80.2734V95.8838H92.2012V74.2383H95.665V77.2559C97.2342 75.9732 98.626 75.0835 99.8398 74.5879C101.053 74.0633 102.252 73.8008 103.437 73.8008C104.828 73.8008 105.983 74.1215 106.9 74.7627C107.818 75.3749 108.499 76.2646 108.943 77.4307C110.572 76.0605 112.023 75.1126 113.296 74.5879C114.598 74.0633 115.872 73.8008 117.115 73.8008ZM187.203 77.3867C185.871 77.3867 184.568 77.6196 183.295 78.0859C182.052 78.5524 180.719 79.4421 179.298 80.7539V95.8838H175.656V74.2383H179.12V77.7363C180.63 76.2789 182.007 75.2589 183.25 74.6758C184.523 74.0928 185.841 73.8008 187.203 73.8008V77.3867ZM134.469 77.0801C132.692 77.0801 131.316 77.6779 130.339 78.873C129.391 80.0391 128.918 81.6577 128.918 83.7275V86.3506C128.918 88.5079 129.391 90.1698 130.339 91.3359C131.316 92.502 132.692 93.085 134.469 93.085C136.275 93.085 137.651 92.5019 138.599 91.3359C139.546 90.1698 140.02 88.5079 140.02 86.3506V83.7275C140.02 81.6577 139.546 80.0391 138.599 78.873C137.651 77.678 136.275 77.0801 134.469 77.0801Z" fill="#240029" fill-opacity="0.3"/>
<path d="M160.927 84.7764L161.164 84.6967L161.163 84.6938L160.927 84.7764ZM163.191 91.5107L162.954 91.5904L163.196 92.3092L163.429 91.5876L163.191 91.5107ZM165.367 84.7764L165.131 84.6956L165.129 84.6995L165.367 84.7764ZM168.965 74.2383V73.9883H168.786L168.728 74.1575L168.965 74.2383ZM172.562 74.2383L172.798 74.3229L172.918 73.9883H172.562V74.2383ZM163.991 98.0703L164.226 98.1552L164.226 98.1549L163.991 98.0703ZM160.482 103.799L160.319 103.609L160.315 103.613L160.482 103.799ZM154.754 105.636H154.504V105.886L154.754 105.886V105.636ZM154.754 102.094L154.747 101.844L154.504 101.851V102.094H154.754ZM157.329 101.7L157.254 101.462L157.251 101.463L157.329 101.7ZM159.283 100.257L159.092 100.095L159.085 100.104L159.283 100.257ZM160.971 97.1084L160.739 97.0143L160.737 97.0194L160.971 97.1084ZM161.415 96.0146L161.647 96.1087L161.683 96.0197L161.65 95.9293L161.415 96.0146ZM153.511 74.2383V73.9883H153.154L153.276 74.3236L153.511 74.2383ZM157.24 74.2383L157.476 74.1557L157.418 73.9883H157.24V74.2383ZM154.069 67.0381L153.835 66.9498L153.835 66.95L154.069 67.0381ZM154.545 66.8223L154.633 66.5883L154.632 66.5879L154.545 66.8223ZM154.762 67.2979L154.996 67.386L154.996 67.3857L154.762 67.2979ZM141.169 103.388L141.403 103.477L141.403 103.476L141.169 103.388ZM140.693 103.601L140.605 103.834L140.605 103.835L140.693 103.601ZM140.478 103.125L140.244 103.037V103.037L140.478 103.125ZM134.469 73.8008V73.5508V73.5508V73.8008ZM141.353 76.5117L141.165 76.6774L141.168 76.6805L141.353 76.5117ZM143.795 86.3506L144.045 86.3506V86.3506H143.795ZM141.353 93.6533L141.168 93.4845L141.167 93.4862L141.353 93.6533ZM134.469 96.3213V96.5713V96.5713V96.3213ZM127.585 93.6533L127.401 93.8221L127.401 93.8222L127.585 93.6533ZM125.143 86.3506H124.893V86.3506L125.143 86.3506ZM127.541 76.5117L127.355 76.3444L127.355 76.3446L127.541 76.5117ZM117.115 73.8008L117.115 73.5508H117.115V73.8008ZM121.601 75.7256L121.406 75.8827L121.408 75.8848L121.601 75.7256ZM123.154 81.1035H123.404V81.1035L123.154 81.1035ZM123.154 95.8838V96.1338H123.404V95.8838H123.154ZM119.513 95.8838H119.263V96.1338H119.513V95.8838ZM116.227 77.168V76.918H116.227L116.227 77.168ZM113.385 77.8242L113.476 78.0568L113.48 78.0555L113.385 77.8242ZM109.477 80.2734L109.323 80.0763L109.194 80.1767L109.234 80.3349L109.477 80.2734ZM109.521 95.8838V96.1338H109.771V95.8838H109.521ZM105.879 95.8838H105.629V96.1338H105.879V95.8838ZM102.549 77.168L102.549 76.918H102.549V77.168ZM99.751 77.8242L99.8426 78.0569L99.8482 78.0546L99.751 77.8242ZM95.8428 80.2734L95.689 80.0763L95.5928 80.1514V80.2734H95.8428ZM95.8428 95.8838V96.1338H96.0928V95.8838H95.8428ZM92.2012 95.8838H91.9512V96.1338H92.2012V95.8838ZM92.2012 74.2383V73.9883H91.9512V74.2383H92.2012ZM95.665 74.2383H95.915V73.9883H95.665V74.2383ZM95.665 77.2559H95.415V77.7831L95.8233 77.4494L95.665 77.2559ZM99.8398 74.5879L99.9344 74.8194L99.939 74.8174L99.8398 74.5879ZM103.437 73.8008V73.5508H103.437L103.437 73.8008ZM106.9 74.7627L106.757 74.9677L106.762 74.9707L106.9 74.7627ZM108.943 77.4307L108.71 77.5196L108.835 77.8486L109.104 77.622L108.943 77.4307ZM113.296 74.5879L113.202 74.356L113.201 74.3568L113.296 74.5879ZM187.203 77.3867V77.6367L187.453 77.6367V77.3867H187.203ZM183.295 78.0859L183.209 77.8512L183.207 77.8519L183.295 78.0859ZM179.298 80.7539L179.128 80.5702L179.048 80.6445V80.7539H179.298ZM179.298 95.8838V96.1338H179.548V95.8838H179.298ZM175.656 95.8838H175.406V96.1338H175.656V95.8838ZM175.656 74.2383V73.9883H175.406V74.2383H175.656ZM179.12 74.2383H179.37V73.9883H179.12V74.2383ZM179.12 77.7363H178.87V78.3252L179.294 77.9162L179.12 77.7363ZM183.25 74.6758L183.146 74.4485L183.144 74.4494L183.25 74.6758ZM187.203 73.8008H187.453V73.5508L187.203 73.5508V73.8008ZM134.469 77.0801V76.8301V76.8301V77.0801ZM130.339 78.873L130.145 78.7148L130.145 78.7154L130.339 78.873ZM128.918 86.3506H128.668V86.3506L128.918 86.3506ZM130.339 91.3359L130.145 91.4936L130.147 91.4965L130.339 91.3359ZM134.469 93.085V93.335V93.335V93.085ZM138.599 91.3359L138.793 91.4936L138.793 91.4936L138.599 91.3359ZM140.02 86.3506L140.27 86.3506V86.3506H140.02ZM138.599 78.873L138.403 79.0284L138.405 79.0307L138.599 78.873ZM160.927 84.7764L160.69 84.8561L162.954 91.5904L163.191 91.5107L163.428 91.4311L161.164 84.6967L160.927 84.7764ZM163.191 91.5107L163.429 91.5876L165.605 84.8532L165.367 84.7764L165.129 84.6995L162.954 91.4339L163.191 91.5107ZM165.367 84.7764L165.604 84.8571L169.201 74.3191L168.965 74.2383L168.728 74.1575L165.131 84.6956L165.367 84.7764ZM168.965 74.2383V74.4883H172.562V74.2383V73.9883H168.965V74.2383ZM172.562 74.2383L172.327 74.1537L163.756 97.9857L163.991 98.0703L164.226 98.1549L172.798 74.3229L172.562 74.2383ZM163.991 98.0703L163.756 97.9854C162.816 100.588 161.666 102.453 160.32 103.609L160.482 103.799L160.645 103.988C162.082 102.754 163.271 100.8 164.226 98.1552L163.991 98.0703ZM160.482 103.799L160.315 103.613C159.013 104.784 157.171 105.386 154.754 105.386V105.636V105.886C157.251 105.886 159.228 105.263 160.65 103.985L160.482 103.799ZM154.754 105.636H155.004V102.094H154.754H154.504V105.636H154.754ZM154.754 102.094L154.761 102.344C155.784 102.314 156.667 102.18 157.407 101.938L157.329 101.7L157.251 101.463C156.57 101.686 155.737 101.815 154.747 101.844L154.754 102.094ZM157.329 101.7L157.404 101.939C158.202 101.687 158.893 101.171 159.481 100.41L159.283 100.257L159.085 100.104C158.548 100.8 157.937 101.247 157.254 101.462L157.329 101.7ZM159.283 100.257L159.474 100.418C160.092 99.6878 160.667 98.6084 161.204 97.1974L160.971 97.1084L160.737 97.0194C160.209 98.4067 159.658 99.4267 159.092 100.095L159.283 100.257ZM160.971 97.1084L161.202 97.2025L161.647 96.1087L161.415 96.0146L161.183 95.9206L160.739 97.0143L160.971 97.1084ZM161.415 96.0146L161.65 95.9293L153.746 74.153L153.511 74.2383L153.276 74.3236L161.18 96.0999L161.415 96.0146ZM153.511 74.2383V74.4883H157.24V74.2383V73.9883H153.511V74.2383ZM157.24 74.2383L157.004 74.3208L160.691 84.8589L160.927 84.7764L161.163 84.6938L157.476 74.1557L157.24 74.2383ZM154.069 67.0381L154.303 67.1264C154.326 67.0656 154.396 67.0335 154.458 67.0566L154.545 66.8223L154.632 66.5879C154.313 66.4695 153.956 66.6303 153.835 66.9498L154.069 67.0381ZM154.545 66.8223L154.457 67.0562C154.52 67.0799 154.55 67.1496 154.528 67.21L154.762 67.2979L154.996 67.3857C155.116 67.0646 154.952 66.7083 154.633 66.5883L154.545 66.8223ZM154.762 67.2979L154.528 67.2097L140.935 103.3L141.169 103.388L141.403 103.476L154.996 67.386L154.762 67.2979ZM141.169 103.388L140.935 103.299C140.913 103.358 140.844 103.39 140.781 103.367L140.693 103.601L140.605 103.835C140.923 103.954 141.281 103.797 141.403 103.477L141.169 103.388ZM140.693 103.601L140.782 103.367C140.719 103.343 140.689 103.274 140.711 103.213L140.478 103.125L140.244 103.037C140.123 103.357 140.286 103.714 140.605 103.834L140.693 103.601ZM140.478 103.125L140.711 103.213L154.303 67.1262L154.069 67.0381L153.835 66.95L140.244 103.037L140.478 103.125ZM134.469 73.8008V74.0508C137.406 74.0508 139.625 74.936 141.165 76.6774L141.353 76.5117L141.54 76.3461C139.883 74.4725 137.512 73.5508 134.469 73.5508V73.8008ZM141.353 76.5117L141.168 76.6805C142.744 78.4017 143.545 80.7415 143.545 83.7275H143.795H144.045C144.045 80.65 143.218 78.1783 141.537 76.3429L141.353 76.5117ZM143.795 83.7275H143.545V86.3506H143.795H144.045V83.7275H143.795ZM143.795 86.3506L143.545 86.3506C143.545 89.3963 142.743 91.7642 141.168 93.4845L141.353 93.6533L141.537 93.8221C143.218 91.9859 144.045 89.4849 144.045 86.3506L143.795 86.3506ZM141.353 93.6533L141.167 93.4862C139.627 95.1991 137.407 96.0713 134.469 96.0713V96.3213V96.5713C137.511 96.5713 139.881 95.6642 141.538 93.8205L141.353 93.6533ZM134.469 96.3213V96.0713C131.561 96.0713 129.34 95.1996 127.769 93.4845L127.585 93.6533L127.401 93.8222C129.087 95.6636 131.455 96.5713 134.469 96.5713V96.3213ZM127.585 93.6533L127.769 93.4845C126.194 91.7642 125.393 89.3963 125.393 86.3506L125.143 86.3506L124.893 86.3506C124.893 89.4849 125.719 91.9859 127.401 93.8221L127.585 93.6533ZM125.143 86.3506H125.393V83.7275H125.143H124.893V86.3506H125.143ZM125.143 83.7275H125.393C125.393 80.7403 126.18 78.4 127.727 76.6789L127.541 76.5117L127.355 76.3446C125.705 78.1801 124.893 80.6511 124.893 83.7275H125.143ZM127.541 76.5117L127.727 76.6791C129.297 74.9361 131.532 74.0508 134.469 74.0508V73.8008V73.5508C131.425 73.5508 129.042 74.4727 127.355 76.3444L127.541 76.5117ZM117.115 73.8008L117.115 74.0508C119.009 74.0509 120.426 74.6699 121.406 75.8827L121.601 75.7256L121.795 75.5685C120.702 74.216 119.129 73.5509 117.115 73.5508L117.115 73.8008ZM121.601 75.7256L121.408 75.8848C122.394 77.0776 122.904 78.8051 122.904 81.1035L123.154 81.1035L123.404 81.1035C123.404 78.7383 122.879 76.8806 121.793 75.5663L121.601 75.7256ZM123.154 81.1035H122.904V95.8838H123.154H123.404V81.1035H123.154ZM123.154 95.8838V95.6338H119.513V95.8838V96.1338H123.154V95.8838ZM119.513 95.8838H119.763V81.6289H119.513H119.263V95.8838H119.513ZM119.513 81.6289H119.763C119.763 80.1188 119.486 78.9407 118.892 78.1351C118.289 77.3152 117.385 76.918 116.227 76.918V77.168V77.418C117.259 77.418 117.998 77.7644 118.49 78.4316C118.992 79.1131 119.263 80.1655 119.263 81.6289H119.513ZM116.227 77.168L116.227 76.918C115.355 76.918 114.375 77.1479 113.29 77.5929L113.385 77.8242L113.48 78.0555C114.526 77.6262 115.44 77.418 116.227 77.418L116.227 77.168ZM113.385 77.8242L113.293 77.5916C112.224 78.0129 110.898 78.8469 109.323 80.0763L109.477 80.2734L109.63 80.4705C111.193 79.2512 112.473 78.4518 113.476 78.0568L113.385 77.8242ZM109.477 80.2734L109.234 80.3349C109.258 80.4271 109.271 80.5374 109.271 80.667H109.521H109.771C109.771 80.5055 109.755 80.3527 109.719 80.212L109.477 80.2734ZM109.521 80.667H109.271V95.8838H109.521H109.771V80.667H109.521ZM109.521 95.8838V95.6338H105.879V95.8838V96.1338H109.521V95.8838ZM105.879 95.8838H106.129V81.6289H105.879H105.629V95.8838H105.879ZM105.879 81.6289H106.129C106.129 80.1183 105.848 78.9397 105.247 78.1339C104.635 77.3144 103.72 76.9181 102.549 76.918L102.549 77.168L102.549 77.418C103.597 77.418 104.348 77.7655 104.846 78.433C105.355 79.1143 105.629 80.1661 105.629 81.6289H105.879ZM102.549 77.168V76.918C101.677 76.918 100.71 77.1481 99.6538 77.5939L99.751 77.8242L99.8482 78.0546C100.864 77.6259 101.763 77.418 102.549 77.418V77.168ZM99.751 77.8242L99.6594 77.5916C98.5898 78.0129 97.2646 78.8469 95.689 80.0763L95.8428 80.2734L95.9966 80.4705C97.5592 79.2512 98.8397 78.4518 99.8426 78.0568L99.751 77.8242ZM95.8428 80.2734H95.5928V95.8838H95.8428H96.0928V80.2734H95.8428ZM95.8428 95.8838V95.6338H92.2012V95.8838V96.1338H95.8428V95.8838ZM92.2012 95.8838H92.4512V74.2383H92.2012H91.9512V95.8838H92.2012ZM92.2012 74.2383V74.4883H95.665V74.2383V73.9883H92.2012V74.2383ZM95.665 74.2383H95.415V77.2559H95.665H95.915V74.2383H95.665ZM95.665 77.2559L95.8233 77.4494C97.3825 76.1748 98.7525 75.3019 99.9343 74.8193L99.8398 74.5879L99.7453 74.3564C98.4995 74.8651 97.0859 75.7715 95.5068 77.0623L95.665 77.2559ZM99.8398 74.5879L99.939 74.8174C101.125 74.3047 102.29 74.0508 103.437 74.0508L103.437 73.8008L103.437 73.5508C102.215 73.5508 100.982 73.8219 99.7407 74.3584L99.8398 74.5879ZM103.437 73.8008V74.0508C104.789 74.0508 105.891 74.3622 106.757 74.9676L106.9 74.7627L107.044 74.5578C106.075 73.8808 104.867 73.5508 103.437 73.5508V73.8008ZM106.9 74.7627L106.762 74.9707C107.631 75.5503 108.282 76.3955 108.71 77.5196L108.943 77.4307L109.177 77.3417C108.717 76.1337 108.006 75.1995 107.039 74.5547L106.9 74.7627ZM108.943 77.4307L109.104 77.622C110.722 76.2604 112.151 75.3301 113.391 74.819L113.296 74.5879L113.201 74.3568C111.894 74.8951 110.421 75.8606 108.782 77.2394L108.943 77.4307ZM113.296 74.5879L113.389 74.8198C114.666 74.3056 115.908 74.0508 117.115 74.0508V73.8008V73.5508C115.836 73.5508 114.531 73.8209 113.202 74.356L113.296 74.5879ZM187.203 77.3867V77.1367C185.841 77.1367 184.509 77.3749 183.209 77.8512L183.295 78.0859L183.381 78.3207C184.627 77.8643 185.901 77.6367 187.203 77.6367V77.3867ZM183.295 78.0859L183.207 77.8519C181.923 78.3336 180.563 79.2457 179.128 80.5702L179.298 80.7539L179.467 80.9376C180.875 79.6386 182.18 78.7712 183.383 78.32L183.295 78.0859ZM179.298 80.7539H179.048V95.8838H179.298H179.548V80.7539H179.298ZM179.298 95.8838V95.6338H175.656V95.8838V96.1338H179.298V95.8838ZM175.656 95.8838H175.906V74.2383H175.656H175.406V95.8838H175.656ZM175.656 74.2383V74.4883H179.12V74.2383V73.9883H175.656V74.2383ZM179.12 74.2383H178.87V77.7363H179.12H179.37V74.2383H179.12ZM179.12 77.7363L179.294 77.9162C180.793 76.4689 182.147 75.4691 183.356 74.9021L183.25 74.6758L183.144 74.4494C181.866 75.0487 180.467 76.0889 178.946 77.5565L179.12 77.7363ZM183.25 74.6758L183.354 74.9031C184.595 74.3346 185.878 74.0508 187.203 74.0508V73.8008V73.5508C185.804 73.5508 184.451 73.851 183.146 74.4485L183.25 74.6758ZM187.203 73.8008H186.953V77.3867H187.203H187.453V73.8008H187.203ZM134.469 77.0801V76.8301C132.63 76.8301 131.177 77.4525 130.145 78.7148L130.339 78.873L130.532 79.0313C131.454 77.9034 132.755 77.3301 134.469 77.3301V77.0801ZM130.339 78.873L130.145 78.7154C129.15 79.9403 128.668 81.6218 128.668 83.7275H128.918H129.168C129.168 81.6936 129.633 80.138 130.533 79.0307L130.339 78.873ZM128.918 83.7275H128.668V86.3506H128.918H129.168V83.7275H128.918ZM128.918 86.3506L128.668 86.3506C128.668 88.5408 129.148 90.2671 130.145 91.4936L130.339 91.3359L130.533 91.1783C129.635 90.0726 129.168 88.4749 129.168 86.3506L128.918 86.3506ZM130.339 91.3359L130.147 91.4965C131.18 92.729 132.632 93.3349 134.469 93.335V93.085V92.835C132.753 92.835 131.452 92.2749 130.53 91.1754L130.339 91.3359ZM134.469 93.085V93.335C136.333 93.335 137.788 92.7299 138.793 91.4936L138.599 91.3359L138.405 91.1783C137.514 92.2739 136.216 92.835 134.469 92.835V93.085ZM138.599 91.3359L138.793 91.4936C139.789 90.2671 140.27 88.5408 140.27 86.3506L140.02 86.3506L139.77 86.3506C139.77 88.4749 139.303 90.0726 138.405 91.1783L138.599 91.3359ZM140.02 86.3506H140.27V83.7275H140.02H139.77V86.3506H140.02ZM140.02 83.7275H140.27C140.27 81.6218 139.788 79.9403 138.793 78.7154L138.599 78.873L138.405 79.0307C139.304 80.138 139.77 81.6936 139.77 83.7275H140.02ZM138.599 78.873L138.795 78.7177C137.791 77.4515 136.335 76.8301 134.469 76.8301V77.0801V77.3301C136.214 77.3301 137.512 77.9044 138.403 79.0284L138.599 78.873Z" fill="#17001C" mask="url(#path-1-inside-1_172_693)"/>
<g filter="url(#filter0_d_172_693)">
<path d="M31.113 78.2207L33.8142 90.5195L40.2332 65.7988H45.4539L51.8728 90.6396L54.5154 78.2793L57.4539 65.7988H62.3142L54.6941 95.5H48.9929L42.7527 71.1396L36.3337 95.5H30.6326L23.074 65.7988H28.113L31.113 78.2207Z" fill="#E737FE"/>
<path d="M71.4929 80.9805C74.0929 78.4605 76.3953 76.0006 78.3953 73.6006C80.4352 71.2007 82.2935 68.5987 83.9734 65.7988H89.613C88.173 68.1988 86.6946 70.4209 85.1746 72.4609C83.6946 74.4608 82.0125 76.5012 80.1326 78.5811L90.8142 95.5H84.8728L76.5349 81.7598C75.7749 82.5198 74.9726 83.3006 74.1326 84.1006C73.2929 84.9003 72.4126 85.7003 71.4929 86.5V95.5H66.574V51.1006H71.4929V80.9805Z" fill="#E737FE"/>
</g>
<g filter="url(#filter1_d_172_693)">
<path d="M87.6503 128.285L90.6191 137.245L93.4685 128.285L98.1816 114.262H102.895L91.6645 145.972C90.4234 149.462 88.8907 152.001 87.0679 153.591C85.2837 155.221 82.7816 156.037 79.5622 156.037V151.324C80.8809 151.286 82.0064 151.109 82.9372 150.799C83.9065 150.489 84.7601 149.85 85.4969 148.881C86.2726 147.95 87.0118 146.553 87.71 144.691L88.2895 143.236L77.9344 114.262H82.8208L87.6503 128.285Z" fill="#F5F5F5"/>
<path d="M71.8264 132.648C71.8265 133.694 71.9798 134.489 72.2895 135.032C72.6385 135.536 73.3183 135.79 74.3264 135.79H75.2583V140.154H73.9202C71.3606 140.154 69.5765 139.474 68.5679 138.117C67.5596 136.76 67.0539 135.014 67.0537 132.881V96.8074H71.8264V132.648Z" fill="#F5F5F5"/>
</g>
<defs>
<filter id="filter0_d_172_693" x="17.274" y="45.3006" width="79.3402" height="55.9994" filterUnits="userSpaceOnUse" color-interpolation-filters="sRGB">
<feFlood flood-opacity="0" result="BackgroundImageFix"/>
<feColorMatrix in="SourceAlpha" type="matrix" values="0 0 0 0 0 0 0 0 0 0 0 0 0 0 0 0 0 0 127 0" result="hardAlpha"/>
<feOffset/>
<feGaussianBlur stdDeviation="2.9"/>
<feComposite in2="hardAlpha" operator="out"/>
<feColorMatrix type="matrix" values="0 0 0 0 0.3 0 0 0 0 0 0 0 0 0 0.34 0 0 0 1 0"/>
<feBlend mode="multiply" in2="BackgroundImageFix" result="effect1_dropShadow_172_693"/>
<feBlend mode="normal" in="SourceGraphic" in2="effect1_dropShadow_172_693" result="shape"/>
</filter>
<filter id="filter1_d_172_693" x="61.2537" y="91.0074" width="47.4408" height="70.8301" filterUnits="userSpaceOnUse" color-interpolation-filters="sRGB">
<feFlood flood-opacity="0" result="BackgroundImageFix"/>
<feColorMatrix in="SourceAlpha" type="matrix" values="0 0 0 0 0 0 0 0 0 0 0 0 0 0 0 0 0 0 127 0" result="hardAlpha"/>
<feOffset/>
<feGaussianBlur stdDeviation="2.9"/>
<feComposite in2="hardAlpha" operator="out"/>
<feColorMatrix type="matrix" values="0 0 0 0 0.3 0 0 0 0 0 0 0 0 0 0.34 0 0 0 1 0"/>
<feBlend mode="multiply" in2="BackgroundImageFix" result="effect1_dropShadow_172_693"/>
<feBlend mode="normal" in="SourceGraphic" in2="effect1_dropShadow_172_693" result="shape"/>
</filter>
<linearGradient id="paint0_linear_172_693" x1="96" y1="0" x2="96" y2="192" gradientUnits="userSpaceOnUse">
<stop offset="0.0036042" stop-color="#570082"/>
<stop offset="1" stop-color="#240029"/>
</linearGradient>
</defs>
</svg>
