<svg width="192" height="192" viewBox="0 0 192 192" fill="none" xmlns="http://www.w3.org/2000/svg">
<rect width="192" height="192" fill="url(#paint0_linear_167_557)"/>
<path d="M148.365 109.548L155.115 127.166C155.181 127.338 155.425 127.337 155.489 127.163L161.972 109.548L172.939 81.3211C172.969 81.2442 173.043 81.1935 173.125 81.1935H183.707C183.849 81.1935 183.946 81.3377 183.892 81.4693L157.754 145.305C154.852 152.363 151.265 157.505 147.003 160.72C142.869 163.983 137.089 165.631 129.662 165.66C129.552 165.66 129.461 165.571 129.461 165.46V156.327C129.461 156.219 129.548 156.13 129.656 156.127C132.655 156.039 135.218 155.683 137.348 155.07C139.614 154.442 141.611 153.152 143.334 151.192C145.147 149.31 146.874 146.484 148.506 142.72L149.831 139.855C149.854 139.805 149.855 139.747 149.834 139.695L138.5 112.278V84.7757L148.365 109.548Z" fill="white"/>
<path d="M136.149 124.841C136.149 126.956 136.512 128.562 137.237 129.659C138.053 130.679 139.644 131.189 142.002 131.189H143.977C144.088 131.189 144.177 131.278 144.177 131.389V139.813C144.177 139.923 144.088 140.013 143.977 140.013H141.047C135.062 140.013 130.886 138.644 128.528 135.899C126.17 133.154 125 129.621 125 125.308V52.5726C125 52.4622 125.089 52.3726 125.2 52.3726H135.949C136.06 52.3726 136.149 52.4622 136.149 52.5726V124.841Z" fill="white"/>
<path d="M25.9005 105.212L32.1488 128.706C32.1797 128.822 32.3432 128.826 32.3793 128.711L47.3058 81.2159C47.332 81.1325 47.4092 81.0758 47.4966 81.0758H59.473C59.5605 81.0758 59.6378 81.1327 59.6639 81.2161L74.5891 128.94C74.6252 129.055 74.7896 129.051 74.8198 128.934L80.9229 105.326L83.5357 96.1624V131.456L81.3875 138.641C81.3622 138.725 81.2843 138.783 81.1959 138.783H68.094C68.0063 138.783 67.9289 138.726 67.903 138.643L53.3869 91.8149C53.3522 91.7028 53.1937 91.7021 53.158 91.814L38.2238 138.644C38.1973 138.727 38.1203 138.783 38.0332 138.783H24.9202C24.8324 138.783 24.7549 138.726 24.729 138.642L7.07972 81.3347C7.04011 81.2061 7.13628 81.0758 7.27087 81.0758H18.6984C18.7873 81.0758 18.8655 81.1345 18.8904 81.2197L25.9005 105.212Z" fill="#E737FE"/>
<path d="M97.9049 110.32C97.9049 110.421 98.0217 110.477 98.1002 110.414C104.134 105.572 109.484 100.846 114.136 96.2321C115.826 94.5893 120.94 89.7786 122.504 88.0638V97.4106V102.289L118.322 105.828C118.27 105.873 118.265 105.951 118.311 106.001L122.479 110.514V128.296L109.889 112.247C109.819 112.159 109.69 112.145 109.604 112.216C107.864 113.652 106.03 115.124 104.113 116.633C102.164 118.167 100.121 119.706 97.9883 121.24C97.936 121.278 97.9049 121.339 97.9049 121.403V138.583C97.9049 138.694 97.8154 138.783 97.7049 138.783H86.5408C86.4303 138.783 86.3408 138.694 86.3408 138.583V52.7137C86.3408 52.6033 86.4303 52.5138 86.5408 52.5138H97.7049C97.8154 52.5138 97.9049 52.6033 97.9049 52.7138V110.32Z" fill="#E737FE"/>
<defs>
<linearGradient id="paint0_linear_167_557" x1="96" y1="0" x2="96" y2="192" gradientUnits="userSpaceOnUse">
<stop offset="0.0036042" stop-color="#570082"/>
<stop offset="1" stop-color="#240029"/>
</linearGradient>
</defs>
</svg>
