<svg width="512" height="512" viewBox="0 0 512 512" fill="none" xmlns="http://www.w3.org/2000/svg">
<rect width="512" height="512" fill="url(#paint0_linear_172_679)"/>
<mask id="path-1-inside-1_172_679" fill="white">
<path d="M429.139 226.071L435.178 244.029L440.98 226.071L450.573 197.968H460.166L437.31 261.521C434.783 268.517 431.665 273.61 427.954 276.797C424.322 280.062 419.229 281.694 412.677 281.694V272.249C415.361 272.171 417.651 271.821 419.546 271.199C421.52 270.577 423.257 269.295 424.757 267.352C426.336 265.486 427.836 262.687 429.257 258.955L430.441 256.04L409.361 197.968H419.309L429.139 226.071ZM410.852 178.769C411.043 178.261 411.613 178.003 412.121 178.192C412.63 178.384 412.889 178.952 412.698 179.461L376.452 275.7C376.26 276.207 375.691 276.46 375.183 276.269C374.674 276.077 374.414 275.509 374.605 275L410.852 178.769ZM358.583 196.802C366.557 196.802 372.676 199.212 376.939 204.031C381.282 208.773 383.453 215.188 383.453 223.272V230.269C383.453 238.509 381.282 245.001 376.939 249.743C372.676 254.485 366.557 256.856 358.583 256.856C350.688 256.856 344.57 254.485 340.228 249.743C335.885 245.001 333.714 238.509 333.714 230.269V223.272C333.714 215.188 335.846 208.773 340.109 204.031C344.452 199.212 350.609 196.802 358.583 196.802ZM312.307 196.803C317.517 196.803 321.504 198.513 324.268 201.934C327.031 205.276 328.412 210.058 328.412 216.277V255.691H318.701V217.676C318.701 209.747 315.78 205.782 309.938 205.782C307.727 205.782 305.2 206.365 302.358 207.531C299.595 208.62 296.122 210.797 291.938 214.062C292.016 214.372 292.056 214.722 292.056 215.11V255.691H282.345V217.676C282.345 209.747 279.384 205.782 273.463 205.782C271.252 205.782 268.765 206.365 266.002 207.531C263.239 208.62 259.764 210.796 255.58 214.062V255.691H245.869V197.969H255.106V206.016C259.291 202.595 263.001 200.224 266.238 198.902C269.475 197.503 272.673 196.803 275.831 196.803C279.542 196.803 282.621 197.658 285.068 199.368C287.516 201.001 289.331 203.372 290.516 206.481C294.858 202.828 298.727 200.302 302.122 198.902C305.596 197.503 308.991 196.803 312.307 196.803ZM499.207 206.364C495.655 206.364 492.181 206.986 488.786 208.229C485.47 209.473 481.917 211.845 478.128 215.343V255.69H468.417V197.968H477.654V207.297C481.681 203.41 485.352 200.689 488.668 199.134C492.062 197.579 495.576 196.802 499.207 196.802V206.364ZM358.583 205.548C353.846 205.548 350.176 207.141 347.57 210.328C345.044 213.438 343.78 217.753 343.78 223.272V230.269C343.78 236.021 345.044 240.453 347.57 243.562C350.176 246.672 353.846 248.226 358.583 248.227C363.399 248.227 367.07 246.672 369.597 243.562C372.123 240.453 373.387 236.021 373.387 230.269V223.272C373.387 217.753 372.123 213.438 369.597 210.328C367.07 207.141 363.399 205.548 358.583 205.548Z"/>
</mask>
<path d="M429.139 226.071L435.178 244.029L440.98 226.071L450.573 197.968H460.166L437.31 261.521C434.783 268.517 431.665 273.61 427.954 276.797C424.322 280.062 419.229 281.694 412.677 281.694V272.249C415.361 272.171 417.651 271.821 419.546 271.199C421.52 270.577 423.257 269.295 424.757 267.352C426.336 265.486 427.836 262.687 429.257 258.955L430.441 256.04L409.361 197.968H419.309L429.139 226.071ZM410.852 178.769C411.043 178.261 411.613 178.003 412.121 178.192C412.63 178.384 412.889 178.952 412.698 179.461L376.452 275.7C376.26 276.207 375.691 276.46 375.183 276.269C374.674 276.077 374.414 275.509 374.605 275L410.852 178.769ZM358.583 196.802C366.557 196.802 372.676 199.212 376.939 204.031C381.282 208.773 383.453 215.188 383.453 223.272V230.269C383.453 238.509 381.282 245.001 376.939 249.743C372.676 254.485 366.557 256.856 358.583 256.856C350.688 256.856 344.57 254.485 340.228 249.743C335.885 245.001 333.714 238.509 333.714 230.269V223.272C333.714 215.188 335.846 208.773 340.109 204.031C344.452 199.212 350.609 196.802 358.583 196.802ZM312.307 196.803C317.517 196.803 321.504 198.513 324.268 201.934C327.031 205.276 328.412 210.058 328.412 216.277V255.691H318.701V217.676C318.701 209.747 315.78 205.782 309.938 205.782C307.727 205.782 305.2 206.365 302.358 207.531C299.595 208.62 296.122 210.797 291.938 214.062C292.016 214.372 292.056 214.722 292.056 215.11V255.691H282.345V217.676C282.345 209.747 279.384 205.782 273.463 205.782C271.252 205.782 268.765 206.365 266.002 207.531C263.239 208.62 259.764 210.796 255.58 214.062V255.691H245.869V197.969H255.106V206.016C259.291 202.595 263.001 200.224 266.238 198.902C269.475 197.503 272.673 196.803 275.831 196.803C279.542 196.803 282.621 197.658 285.068 199.368C287.516 201.001 289.331 203.372 290.516 206.481C294.858 202.828 298.727 200.302 302.122 198.902C305.596 197.503 308.991 196.803 312.307 196.803ZM499.207 206.364C495.655 206.364 492.181 206.986 488.786 208.229C485.47 209.473 481.917 211.845 478.128 215.343V255.69H468.417V197.968H477.654V207.297C481.681 203.41 485.352 200.689 488.668 199.134C492.062 197.579 495.576 196.802 499.207 196.802V206.364ZM358.583 205.548C353.846 205.548 350.176 207.141 347.57 210.328C345.044 213.438 343.78 217.753 343.78 223.272V230.269C343.78 236.021 345.044 240.453 347.57 243.562C350.176 246.672 353.846 248.226 358.583 248.227C363.399 248.227 367.07 246.672 369.597 243.562C372.123 240.453 373.387 236.021 373.387 230.269V223.272C373.387 217.753 372.123 213.438 369.597 210.328C367.07 207.141 363.399 205.548 358.583 205.548Z" fill="#240029" fill-opacity="0.3"/>
<path d="M429.139 226.071L429.376 225.992L429.375 225.989L429.139 226.071ZM435.178 244.029L434.941 244.109L435.182 244.828L435.416 244.106L435.178 244.029ZM440.98 226.071L440.744 225.991L440.743 225.994L440.98 226.071ZM450.573 197.968V197.718H450.394L450.337 197.887L450.573 197.968ZM460.166 197.968L460.401 198.052L460.522 197.718H460.166V197.968ZM437.31 261.521L437.545 261.605L437.545 261.605L437.31 261.521ZM427.954 276.797L427.791 276.607L427.787 276.611L427.954 276.797ZM412.677 281.694H412.427V281.944H412.677V281.694ZM412.677 272.249L412.67 271.999L412.427 272.006V272.249H412.677ZM419.546 271.199L419.471 270.961L419.468 270.962L419.546 271.199ZM424.757 267.352L424.566 267.19L424.559 267.199L424.757 267.352ZM429.257 258.955L429.025 258.861L429.023 258.866L429.257 258.955ZM430.441 256.04L430.673 256.134L430.709 256.045L430.676 255.955L430.441 256.04ZM409.361 197.968V197.718H409.005L409.126 198.053L409.361 197.968ZM419.309 197.968L419.545 197.885L419.486 197.718H419.309V197.968ZM410.852 178.769L410.618 178.68L410.618 178.68L410.852 178.769ZM412.121 178.192L412.209 177.958L412.208 177.958L412.121 178.192ZM412.698 179.461L412.932 179.549L412.932 179.549L412.698 179.461ZM376.452 275.7L376.686 275.789L376.686 275.788L376.452 275.7ZM375.183 276.269L375.094 276.502L375.095 276.503L375.183 276.269ZM374.605 275L374.372 274.912L374.371 274.912L374.605 275ZM358.583 196.802V196.552V196.552V196.802ZM376.939 204.031L376.752 204.197L376.755 204.2L376.939 204.031ZM376.939 249.743L376.755 249.574L376.754 249.576L376.939 249.743ZM358.583 256.856V257.106V257.106V256.856ZM340.228 249.743L340.043 249.912V249.912L340.228 249.743ZM340.109 204.031L339.924 203.864L339.923 203.864L340.109 204.031ZM312.307 196.803V196.553V196.553V196.803ZM324.268 201.934L324.073 202.091L324.075 202.093L324.268 201.934ZM328.412 255.691V255.941H328.662V255.691H328.412ZM318.701 255.691H318.451V255.941H318.701V255.691ZM318.701 217.676H318.951V217.676L318.701 217.676ZM309.938 205.782V205.532V205.532V205.782ZM302.358 207.531L302.45 207.764L302.453 207.763L302.358 207.531ZM291.938 214.062L291.784 213.864L291.655 213.965L291.695 214.123L291.938 214.062ZM292.056 215.11H292.306V215.11L292.056 215.11ZM292.056 255.691V255.941H292.306V255.691H292.056ZM282.345 255.691H282.095V255.941H282.345V255.691ZM282.345 217.676H282.595V217.676L282.345 217.676ZM273.463 205.782V205.532V205.532V205.782ZM266.002 207.531L266.094 207.764L266.099 207.762L266.002 207.531ZM255.58 214.062L255.426 213.864L255.33 213.939V214.062H255.58ZM255.58 255.691V255.941H255.83V255.691H255.58ZM245.869 255.691H245.619V255.941H245.869V255.691ZM245.869 197.969V197.719H245.619V197.969H245.869ZM255.106 197.969H255.356V197.719H255.106V197.969ZM255.106 206.016H254.856V206.543L255.265 206.209L255.106 206.016ZM266.238 198.902L266.333 199.134L266.337 199.132L266.238 198.902ZM275.831 196.803V196.553V196.553V196.803ZM285.068 199.368L284.925 199.573L284.93 199.576L285.068 199.368ZM290.516 206.481L290.282 206.57L290.407 206.899L290.677 206.673L290.516 206.481ZM302.122 198.902L302.029 198.67L302.027 198.671L302.122 198.902ZM499.207 206.364V206.614L499.457 206.614V206.364H499.207ZM488.786 208.229L488.7 207.995L488.698 207.995L488.786 208.229ZM478.128 215.343L477.958 215.159L477.878 215.233V215.343H478.128ZM478.128 255.69V255.94H478.378V255.69H478.128ZM468.417 255.69H468.167V255.94H468.417V255.69ZM468.417 197.968V197.718H468.167V197.968H468.417ZM477.654 197.968H477.904V197.718H477.654V197.968ZM477.654 207.297H477.404V207.886L477.828 207.477L477.654 207.297ZM488.668 199.134L488.564 198.906L488.562 198.907L488.668 199.134ZM499.207 196.802H499.457V196.552L499.207 196.552V196.802ZM358.583 205.548V205.298V205.298V205.548ZM347.57 210.328L347.377 210.17L347.376 210.17L347.57 210.328ZM347.57 243.562L347.376 243.72L347.379 243.723L347.57 243.562ZM358.583 248.227V248.477V248.477V248.227ZM369.597 243.562L369.791 243.72V243.72L369.597 243.562ZM369.597 210.328L369.401 210.483L369.403 210.486L369.597 210.328ZM429.139 226.071L428.902 226.151L434.941 244.109L435.178 244.029L435.415 243.95L429.376 225.992L429.139 226.071ZM435.178 244.029L435.416 244.106L441.218 226.148L440.98 226.071L440.743 225.994L434.94 243.952L435.178 244.029ZM440.98 226.071L441.217 226.152L450.81 198.049L450.573 197.968L450.337 197.887L440.744 225.991L440.98 226.071ZM450.573 197.968V198.218H460.166V197.968V197.718H450.573V197.968ZM460.166 197.968L459.931 197.883L437.074 261.436L437.31 261.521L437.545 261.605L460.401 198.052L460.166 197.968ZM437.31 261.521L437.074 261.436C434.556 268.411 431.456 273.459 427.791 276.607L427.954 276.797L428.117 276.987C431.873 273.76 435.011 268.623 437.545 261.605L437.31 261.521ZM427.954 276.797L427.787 276.611C424.215 279.822 419.189 281.444 412.677 281.444V281.694V281.944C419.27 281.944 424.43 280.301 428.121 276.983L427.954 276.797ZM412.677 281.694H412.927V272.249H412.677H412.427V281.694H412.677ZM412.677 272.249L412.684 272.499C415.385 272.421 417.7 272.068 419.624 271.437L419.546 271.199L419.468 270.962C417.602 271.574 415.337 271.922 412.67 271.999L412.677 272.249ZM419.546 271.199L419.621 271.438C421.652 270.798 423.429 269.48 424.955 267.504L424.757 267.352L424.559 267.199C423.084 269.109 421.387 270.357 419.471 270.961L419.546 271.199ZM424.757 267.352L424.948 267.513C426.553 265.616 428.065 262.787 429.49 259.044L429.257 258.955L429.023 258.866C427.607 262.586 426.119 265.355 424.566 267.19L424.757 267.352ZM429.257 258.955L429.488 259.049L430.673 256.134L430.441 256.04L430.21 255.946L429.025 258.861L429.257 258.955ZM430.441 256.04L430.676 255.955L409.596 197.882L409.361 197.968L409.126 198.053L430.206 256.125L430.441 256.04ZM409.361 197.968V198.218H419.309V197.968V197.718H409.361V197.968ZM419.309 197.968L419.073 198.05L428.903 226.154L429.139 226.071L429.375 225.989L419.545 197.885L419.309 197.968ZM410.852 178.769L411.085 178.857C411.228 178.478 411.654 178.285 412.034 178.427L412.121 178.192L412.208 177.958C411.572 177.721 410.858 178.043 410.618 178.68L410.852 178.769ZM412.121 178.192L412.033 178.426C412.413 178.57 412.606 178.994 412.464 179.373L412.698 179.461L412.932 179.549C413.172 178.91 412.846 178.198 412.209 177.958L412.121 178.192ZM412.698 179.461L412.464 179.373L376.218 275.612L376.452 275.7L376.686 275.788L412.932 179.549L412.698 179.461ZM376.452 275.7L376.218 275.611C376.075 275.988 375.651 276.178 375.271 276.035L375.183 276.269L375.095 276.503C375.73 276.742 376.444 276.426 376.686 275.789L376.452 275.7ZM375.183 276.269L375.271 276.035C374.89 275.891 374.697 275.467 374.839 275.088L374.605 275L374.371 274.912C374.131 275.551 374.458 276.263 375.094 276.502L375.183 276.269ZM374.605 275L374.839 275.088L411.086 178.857L410.852 178.769L410.618 178.68L374.372 274.912L374.605 275ZM358.583 196.802V197.052C366.504 197.052 372.547 199.443 376.752 204.197L376.939 204.031L377.127 203.866C372.805 198.98 366.61 196.552 358.583 196.552V196.802ZM376.939 204.031L376.755 204.2C381.045 208.885 383.203 215.233 383.203 223.272H383.453H383.703C383.703 215.142 381.518 208.662 377.124 203.862L376.939 204.031ZM383.453 223.272H383.203V230.269H383.453H383.703V223.272H383.453ZM383.453 230.269H383.203C383.203 238.465 381.044 244.89 376.755 249.574L376.939 249.743L377.124 249.912C381.519 245.112 383.703 238.553 383.703 230.269H383.453ZM376.939 249.743L376.754 249.576C372.549 254.253 366.505 256.606 358.583 256.606V256.856V257.106C366.609 257.106 372.803 254.718 377.125 249.91L376.939 249.743ZM358.583 256.856V256.606C350.741 256.606 344.696 254.253 340.412 249.574L340.228 249.743L340.043 249.912C344.443 254.717 350.635 257.106 358.583 257.106V256.856ZM340.228 249.743L340.412 249.574C336.123 244.89 333.964 238.465 333.964 230.269H333.714H333.464C333.464 238.553 335.648 245.112 340.043 249.912L340.228 249.743ZM333.714 230.269H333.964V223.272H333.714H333.464V230.269H333.714ZM333.714 223.272H333.964C333.964 215.232 336.083 208.883 340.295 204.198L340.109 204.031L339.923 203.864C335.609 208.663 333.464 215.143 333.464 223.272H333.714ZM340.109 204.031L340.295 204.199C344.579 199.443 350.663 197.052 358.583 197.052V196.802V196.552C350.556 196.552 344.324 198.98 339.924 203.864L340.109 204.031ZM312.307 196.803V197.053C317.457 197.053 321.366 198.74 324.073 202.091L324.268 201.934L324.462 201.776C321.642 198.286 317.577 196.553 312.307 196.553V196.803ZM324.268 201.934L324.075 202.093C326.788 205.375 328.162 210.092 328.162 216.277H328.412H328.662C328.662 210.025 327.274 205.178 324.46 201.774L324.268 201.934ZM328.412 216.277H328.162V255.691H328.412H328.662V216.277H328.412ZM328.412 255.691V255.441H318.701V255.691V255.941H328.412V255.691ZM318.701 255.691H318.951V217.676H318.701H318.451V255.691H318.701ZM318.701 217.676L318.951 217.676C318.951 213.688 318.218 210.652 316.711 208.607C315.195 206.549 312.921 205.532 309.938 205.532V205.782V206.032C312.796 206.032 314.904 206.998 316.309 208.904C317.724 210.824 318.451 213.735 318.451 217.676L318.701 217.676ZM309.938 205.782V205.532C307.684 205.532 305.125 206.126 302.264 207.3L302.358 207.531L302.453 207.763C305.276 206.604 307.77 206.032 309.938 206.032V205.782ZM302.358 207.531L302.267 207.299C299.47 208.4 295.974 210.594 291.784 213.864L291.938 214.062L292.091 214.259C296.269 210.999 299.72 208.839 302.45 207.764L302.358 207.531ZM291.938 214.062L291.695 214.123C291.768 214.41 291.806 214.738 291.806 215.11L292.056 215.11L292.306 215.11C292.306 214.706 292.265 214.335 292.18 214L291.938 214.062ZM292.056 215.11H291.806V255.691H292.056H292.306V215.11H292.056ZM292.056 255.691V255.441H282.345V255.691V255.941H292.056V255.691ZM282.345 255.691H282.595V217.676H282.345H282.095V255.691H282.345ZM282.345 217.676L282.595 217.676C282.595 213.687 281.851 210.651 280.324 208.606C278.787 206.548 276.485 205.532 273.463 205.532V205.782V206.032C276.362 206.032 278.5 206.999 279.924 208.905C281.358 210.825 282.095 213.735 282.095 217.676L282.345 217.676ZM273.463 205.782V205.532C271.209 205.532 268.688 206.126 265.905 207.301L266.002 207.531L266.099 207.762C268.842 206.604 271.295 206.032 273.463 206.032V205.782ZM266.002 207.531L265.91 207.299C263.114 208.4 259.617 210.594 255.426 213.864L255.58 214.062L255.734 214.259C259.912 210.999 263.364 208.839 266.094 207.764L266.002 207.531ZM255.58 214.062H255.33V255.691H255.58H255.83V214.062H255.58ZM255.58 255.691V255.441H245.869V255.691V255.941H255.58V255.691ZM245.869 255.691H246.119V197.969H245.869H245.619V255.691H245.869ZM245.869 197.969V198.219H255.106V197.969V197.719H245.869V197.969ZM255.106 197.969H254.856V206.016H255.106H255.356V197.969H255.106ZM255.106 206.016L255.265 206.209C259.439 202.797 263.128 200.442 266.333 199.134L266.238 198.902L266.144 198.671C262.875 200.006 259.142 202.394 254.948 205.822L255.106 206.016ZM266.238 198.902L266.337 199.132C269.547 197.744 272.711 197.053 275.831 197.053V196.803V196.553C272.635 196.553 269.404 197.262 266.139 198.673L266.238 198.902ZM275.831 196.803V197.053C279.503 197.053 282.529 197.899 284.925 199.573L285.068 199.368L285.212 199.163C282.713 197.417 279.58 196.553 275.831 196.553V196.803ZM285.068 199.368L284.93 199.576C287.328 201.176 289.114 203.503 290.282 206.57L290.516 206.481L290.749 206.392C289.549 203.241 287.703 200.825 285.207 199.16L285.068 199.368ZM290.516 206.481L290.677 206.673C295.009 203.028 298.856 200.519 302.217 199.133L302.122 198.902L302.027 198.671C298.599 200.084 294.707 202.628 290.355 206.29L290.516 206.481ZM302.122 198.902L302.215 199.134C305.663 197.745 309.027 197.053 312.307 197.053V196.803V196.553C308.955 196.553 305.528 197.261 302.029 198.67L302.122 198.902ZM499.207 206.364V206.114C495.625 206.114 492.122 206.741 488.7 207.995L488.786 208.229L488.872 208.464C492.24 207.23 495.684 206.614 499.207 206.614V206.364ZM488.786 208.229L488.698 207.995C485.342 209.255 481.762 211.648 477.958 215.159L478.128 215.343L478.298 215.526C482.073 212.041 485.599 209.692 488.874 208.464L488.786 208.229ZM478.128 215.343H477.878V255.69H478.128H478.378V215.343H478.128ZM478.128 255.69V255.44H468.417V255.69V255.94H478.128V255.69ZM468.417 255.69H468.667V197.968H468.417H468.167V255.69H468.417ZM468.417 197.968V198.218H477.654V197.968V197.718H468.417V197.968ZM477.654 197.968H477.404V207.297H477.654H477.904V197.968H477.654ZM477.654 207.297L477.828 207.477C481.844 203.6 485.493 200.899 488.774 199.36L488.668 199.134L488.562 198.907C485.212 200.478 481.517 203.22 477.481 207.117L477.654 207.297ZM488.668 199.134L488.772 199.361C492.135 197.821 495.613 197.052 499.207 197.052V196.802V196.552C495.539 196.552 491.99 197.337 488.564 198.906L488.668 199.134ZM499.207 196.802H498.957V206.364H499.207H499.457V196.802H499.207ZM358.583 205.548V205.298C353.784 205.298 350.037 206.916 347.377 210.17L347.57 210.328L347.764 210.486C350.314 207.367 353.909 205.798 358.583 205.798V205.548ZM347.57 210.328L347.376 210.17C344.802 213.339 343.53 217.717 343.53 223.272H343.78H344.03C344.03 217.789 345.286 213.537 347.764 210.486L347.57 210.328ZM343.78 223.272H343.53V230.269H343.78H344.03V223.272H343.78ZM343.78 230.269H343.53C343.53 236.054 344.801 240.55 347.376 243.72L347.57 243.562L347.764 243.405C345.287 240.356 344.03 235.988 344.03 230.269H343.78ZM347.57 243.562L347.379 243.723C350.04 246.899 353.786 248.476 358.583 248.477V248.227V247.977C353.906 247.976 350.312 246.445 347.762 243.402L347.57 243.562ZM358.583 248.227V248.477C363.457 248.477 367.207 246.9 369.791 243.72L369.597 243.562L369.403 243.405C366.933 246.444 363.34 247.977 358.583 247.977V248.227ZM369.597 243.562L369.791 243.72C372.366 240.55 373.637 236.054 373.637 230.269H373.387H373.137C373.137 235.988 371.88 240.356 369.403 243.405L369.597 243.562ZM373.387 230.269H373.637V223.272H373.387H373.137V230.269H373.387ZM373.387 223.272H373.637C373.637 217.717 372.365 213.339 369.791 210.17L369.597 210.328L369.403 210.486C371.881 213.537 373.137 217.789 373.137 223.272H373.387ZM369.597 210.328L369.793 210.173C367.21 206.915 363.459 205.298 358.583 205.298V205.548V205.798C363.338 205.798 366.931 207.368 369.401 210.483L369.597 210.328Z" fill="#17001C" mask="url(#path-1-inside-1_172_679)"/>
<g filter="url(#filter0_d_172_679)">
<path d="M82.9683 209.422L90.1714 242.219L107.289 176.297H121.21L138.328 242.539L145.375 209.578L153.21 176.297H166.171L145.851 255.5H130.648L114.007 190.539L96.8901 255.5H81.687L61.5308 176.297H74.9683L82.9683 209.422Z" fill="#E737FE"/>
<path d="M190.648 216.781C197.581 210.061 203.721 203.502 209.054 197.102C214.494 190.702 219.449 183.763 223.929 176.297H238.968C235.128 182.697 231.186 188.622 227.132 194.062C223.186 199.396 218.7 204.836 213.687 210.383L242.171 255.5H226.328L204.093 218.859C202.067 220.886 199.927 222.968 197.687 225.102C195.448 227.234 193.1 229.368 190.648 231.5V255.5H177.531V137.102H190.648V216.781Z" fill="#E737FE"/>
</g>
<g filter="url(#filter1_d_172_679)">
<path d="M233.734 340.747L241.651 364.641L249.249 340.747L261.817 303.353H274.386L244.439 387.913C241.129 397.221 237.042 403.991 232.181 408.232C227.423 412.576 220.751 414.754 212.166 414.754V402.186C215.682 402.083 218.684 401.612 221.166 400.785C223.751 399.958 226.027 398.255 227.992 395.671C230.06 393.189 232.031 389.462 233.893 384.497L235.439 380.618L207.825 303.353H220.855L233.734 340.747Z" fill="#F5F5F5"/>
<path d="M191.537 352.383C191.537 355.172 191.946 357.292 192.772 358.739C193.703 360.084 195.516 360.762 198.204 360.762H200.689V372.398H197.12C190.295 372.398 185.537 370.585 182.848 366.966C180.159 363.347 178.81 358.692 178.81 353.004V256.807H191.537V352.383Z" fill="#F5F5F5"/>
</g>
<defs>
<filter id="filter0_d_172_679" x="55.7308" y="131.302" width="192.241" height="129.998" filterUnits="userSpaceOnUse" color-interpolation-filters="sRGB">
<feFlood flood-opacity="0" result="BackgroundImageFix"/>
<feColorMatrix in="SourceAlpha" type="matrix" values="0 0 0 0 0 0 0 0 0 0 0 0 0 0 0 0 0 0 127 0" result="hardAlpha"/>
<feOffset/>
<feGaussianBlur stdDeviation="2.9"/>
<feComposite in2="hardAlpha" operator="out"/>
<feColorMatrix type="matrix" values="0 0 0 0 0.3 0 0 0 0 0 0 0 0 0 0.34 0 0 0 1 0"/>
<feBlend mode="multiply" in2="BackgroundImageFix" result="effect1_dropShadow_172_679"/>
<feBlend mode="normal" in="SourceGraphic" in2="effect1_dropShadow_172_679" result="shape"/>
</filter>
<filter id="filter1_d_172_679" x="173.01" y="251.007" width="107.176" height="169.547" filterUnits="userSpaceOnUse" color-interpolation-filters="sRGB">
<feFlood flood-opacity="0" result="BackgroundImageFix"/>
<feColorMatrix in="SourceAlpha" type="matrix" values="0 0 0 0 0 0 0 0 0 0 0 0 0 0 0 0 0 0 127 0" result="hardAlpha"/>
<feOffset/>
<feGaussianBlur stdDeviation="2.9"/>
<feComposite in2="hardAlpha" operator="out"/>
<feColorMatrix type="matrix" values="0 0 0 0 0.3 0 0 0 0 0 0 0 0 0 0.34 0 0 0 1 0"/>
<feBlend mode="multiply" in2="BackgroundImageFix" result="effect1_dropShadow_172_679"/>
<feBlend mode="normal" in="SourceGraphic" in2="effect1_dropShadow_172_679" result="shape"/>
</filter>
<linearGradient id="paint0_linear_172_679" x1="256" y1="0" x2="256" y2="512" gradientUnits="userSpaceOnUse">
<stop offset="0.0036042" stop-color="#570082"/>
<stop offset="1" stop-color="#240029"/>
</linearGradient>
</defs>
</svg>
